<?xml version="1.0" encoding="utf-8"?>
<!-- Generator: Adobe Illustrator 27.3.1, SVG Export Plug-In . SVG Version: 6.00 Build 0)  -->
<svg version="1.1" id="Camada_1" xmlns="http://www.w3.org/2000/svg" xmlns:xlink="http://www.w3.org/1999/xlink" x="0px" y="0px"
	 viewBox="0 0 160 24" style="enable-background:new 0 0 160 24;" xml:space="preserve">
<style type="text/css">
	.st0{fill:#9CEE69;}
	.st1{fill:#FFFFFF;}
</style>
<path class="st0" d="M24.6,9.4c-0.4-0.9-0.9-3.8-1.4-4.6c-0.9-1.3-2.2-2.2-3.7-2.7c-0.4-0.1-0.9-0.3-1.3-0.4
	c-1.7-0.4-3.5-0.7-5.4-0.8C9,0.8,5.3,1,1.5,1.6C0.6,1.8,0.1,2,0,2.2c0,0.1,0,0.2,0,0.3C0.3,3.7,1,6.9,2.2,8l0.3,0.2
	c0.1,0.1,0.2,0.1,0.3,0.1c0.8-0.1,4.5-0.6,4.7-0.6c1.1-0.2,9.7-0.6,12.4,0c0.1,0,0.1,0,0.2,0.1l-0.6,0.1c-0.6,0.3-7.9,2.1-9.5,2.5
	c0,0,0,0,0,0c-0.1,0-0.1,0-0.1,0c0,0,0,0,0,0c0,0,0,0,0,0c0,0,0,0,0,0c0,0,0,0,0,0c0,0,0,0,0,0c0,0,0,0,0,0c0,0,0,0,0,0c0,0,0,0,0,0
	c0,0,0,0,0,0c0,0,0,0,0,0c0,0,0,0,0,0c0,0-0.1,0-0.1,0c-8.2,2.7-3.9,5.7-2.6,6.6c0.1,0.1,8.1,5.4,10.2,6.2l0.4,0.1c0,0,0,0,0,0
	c0.6,0.2,2.6,0.4,2.9-0.6c0.1-0.2-0.1-0.3-0.3-0.5c-0.3-0.2-0.5-0.3-0.7-0.5c-0.2-0.2-0.5-0.3-0.7-0.5c-2.6-1.9-5.5-4.3-8.5-7.2
	c0,0,0,0,0,0c0,0,0,0,0,0c0,0,0,0,0,0c0,0,0,0,0,0c0,0,0,0,0,0c0.8-0.1,11-1.5,13.7-2.7c0.3-0.1,0.5-0.3,0.6-0.4
	c0-0.1,0-0.1,0.1-0.1c0-0.1,0.1-0.1,0.1-0.2C24.8,10.3,24.8,9.9,24.6,9.4z"/>
<g>
	<g>
		<path class="st1" d="M55.1,13.2c1.1-0.5,2-1.3,2.6-2.3c0.6-1,0.9-2.1,0.9-3.5c0-1.3-0.3-2.4-0.9-3.4c-0.6-1-1.5-1.8-2.6-2.3
			c-1.1-0.6-2.4-0.9-3.9-0.9h-4.5h-1.2h-3.2v22.7h4.4V14h0.8l7.3,9.5h5.3l-7.6-9.6C53.4,13.8,54.3,13.6,55.1,13.2z M46.7,4.4h4.1
			c1.1,0,1.9,0.3,2.5,0.9c0.6,0.6,0.9,1.3,0.9,2.2c0,1-0.3,1.7-0.9,2.3c-0.6,0.5-1.4,0.8-2.5,0.8h-4.1V4.4z"/>
		<path class="st1" d="M72.9,8.6c-1.2-0.7-2.5-1-4-1c-1.5,0-2.9,0.4-4.2,1.1c-1.3,0.7-2.2,1.7-3,2.9c-0.7,1.2-1.1,2.6-1.1,4.1
			c0,1.6,0.4,3,1.1,4.2c0.7,1.2,1.8,2.2,3,2.9c1.3,0.7,2.7,1,4.4,1c1.3,0,2.5-0.2,3.5-0.7c1.1-0.5,2-1.1,2.8-2L73,18.7
			c-0.5,0.5-1,0.9-1.7,1.2c-0.6,0.3-1.4,0.4-2.2,0.4c-0.9,0-1.7-0.2-2.3-0.6c-0.7-0.4-1.2-0.9-1.5-1.6c-0.1-0.3-0.2-0.6-0.3-0.9
			l11.4,0c0.1-0.4,0.1-0.7,0.2-1c0-0.3,0-0.6,0-0.9c0-1.5-0.3-2.8-1-4C74.9,10.2,74,9.3,72.9,8.6z M66.7,11.7
			c0.6-0.4,1.4-0.6,2.2-0.6c0.8,0,1.5,0.2,2,0.5c0.6,0.3,1,0.8,1.3,1.4c0.1,0.3,0.2,0.6,0.3,1l-7.6,0c0.1-0.3,0.2-0.6,0.3-0.8
			C65.6,12.6,66.1,12,66.7,11.7z"/>
		<path class="st1" d="M83.4,11.4c0.3-0.2,0.8-0.3,1.4-0.3c0.7,0,1.3,0.1,1.9,0.4c0.6,0.3,1.1,0.7,1.6,1.3l2.6-2.6
			c-0.7-0.9-1.6-1.6-2.6-2c-1-0.5-2.2-0.7-3.5-0.7c-1.2,0-2.3,0.2-3.2,0.6c-0.9,0.4-1.6,1-2.1,1.7c-0.5,0.7-0.7,1.6-0.7,2.6
			c0,0.9,0.2,1.7,0.6,2.3c0.4,0.6,0.9,1.1,1.5,1.4c0.6,0.3,1.2,0.6,1.9,0.8c0.7,0.2,1.3,0.4,1.9,0.5c0.6,0.2,1.1,0.4,1.5,0.6
			c0.4,0.2,0.6,0.6,0.6,1c0,0.4-0.2,0.7-0.5,0.9c-0.4,0.2-0.9,0.3-1.6,0.3c-0.9,0-1.6-0.2-2.4-0.5c-0.7-0.3-1.3-0.8-1.9-1.4L77.8,21
			c0.5,0.6,1.1,1.1,1.8,1.5c0.7,0.4,1.5,0.7,2.3,1c0.9,0.2,1.7,0.4,2.6,0.4c1.9,0,3.4-0.4,4.5-1.3c1.1-0.9,1.7-2.1,1.7-3.6
			c0-0.9-0.2-1.7-0.6-2.3c-0.4-0.6-0.9-1.1-1.5-1.5c-0.6-0.4-1.2-0.7-1.9-0.9c-0.7-0.2-1.3-0.4-1.9-0.5c-0.6-0.2-1.1-0.3-1.5-0.6
			c-0.4-0.2-0.6-0.5-0.6-0.9C82.9,11.9,83,11.6,83.4,11.4z"/>
		<path class="st1" d="M103,16.9c0,1-0.2,1.7-0.7,2.3c-0.5,0.5-1.2,0.8-2.1,0.8c-0.6,0-1.1-0.1-1.5-0.4c-0.4-0.2-0.8-0.6-1-1
			c-0.2-0.5-0.3-1-0.3-1.7V7.9h-4.3v9c0,1.4,0.3,2.6,0.9,3.6c0.6,1,1.4,1.8,2.5,2.4c1.1,0.6,2.3,0.9,3.7,0.9c1.4,0,2.6-0.3,3.7-0.9
			s1.9-1.4,2.5-2.4c0.6-1,0.9-2.2,0.9-3.6v-9H103V16.9z"/>
		<rect x="110.6" y="0.2" class="st1" width="4.2" height="23.3"/>
		<path class="st1" d="M127.7,20c-0.7,0-1.3-0.1-1.7-0.3c-0.4-0.2-0.8-0.5-1-0.9c-0.2-0.4-0.3-0.9-0.3-1.5V9.7h4V6h-4v-4h-4.2v1.4
			c0,0.9-0.2,1.5-0.7,2c-0.5,0.5-1.1,0.7-2,0.7h-0.3v3.8h3v7.8c0,2,0.5,3.5,1.6,4.6c1.1,1.1,2.6,1.6,4.6,1.6c0.3,0,0.7,0,1.1-0.1
			c0.4,0,0.7-0.1,1-0.1v-3.6c-0.2,0-0.4,0-0.6,0.1C128,20,127.9,20,127.7,20z"/>
		<path class="st1" d="M142.3,8c-0.6-0.2-1.3-0.4-2-0.4c-1.7,0-3.1,0.6-4,1.7c0,0,0,0,0,0V7.9H132v15.6h4.2v-8.6
			c0-1.2,0.3-2,0.9-2.6c0.6-0.6,1.3-0.9,2.2-0.9c0.4,0,0.8,0.1,1.1,0.2c0.3,0.1,0.6,0.3,0.9,0.6l2.7-3C143.5,8.6,142.9,8.2,142.3,8z
			"/>
		<path class="st1" d="M158.9,11.4c-0.7-1.2-1.6-2.1-2.7-2.8c-1.2-0.7-2.5-1-4-1c-1.5,0-2.9,0.4-4.2,1.1c-1.3,0.7-2.2,1.7-3,2.9
			c-0.7,1.2-1.1,2.6-1.1,4.1c0,1.6,0.4,3,1.1,4.2c0.7,1.2,1.8,2.2,3,2.9c1.3,0.7,2.7,1,4.4,1c1.3,0,2.5-0.2,3.5-0.7
			c1.1-0.5,2-1.1,2.8-2l-2.5-2.5c-0.5,0.5-1,0.9-1.7,1.2c-0.6,0.3-1.4,0.4-2.2,0.4c-0.9,0-1.7-0.2-2.3-0.6c-0.7-0.4-1.2-0.9-1.5-1.6
			c-0.1-0.3-0.2-0.6-0.3-0.9l11.4,0c0.1-0.4,0.1-0.7,0.2-1c0-0.3,0-0.6,0-0.9C159.9,13.9,159.6,12.5,158.9,11.4z M150,11.7
			c0.6-0.4,1.4-0.6,2.2-0.6c0.8,0,1.5,0.2,2,0.5c0.5,0.3,1,0.8,1.3,1.4c0.1,0.3,0.2,0.6,0.3,1l-7.6,0c0.1-0.3,0.2-0.6,0.3-0.8
			C148.9,12.6,149.4,12,150,11.7z"/>
	</g>
</g>
</svg>
