<?xml version="1.0" encoding="utf-8"?>
<!-- Generator: Adobe Illustrator 27.3.1, SVG Export Plug-In . SVG Version: 6.00 Build 0)  -->
<svg version="1.1" id="Camada_1" xmlns="http://www.w3.org/2000/svg" xmlns:xlink="http://www.w3.org/1999/xlink" x="0px" y="0px"
	 viewBox="0 0 160 24" style="enable-background:new 0 0 160 24;" xml:space="preserve">
<style type="text/css">
	.st0{fill:#9CEE69;}
</style>
<path class="st0" d="M25,9.5c-0.4-0.9-0.9-3.8-1.4-4.6c-0.9-1.3-2.2-2.2-3.7-2.7c-0.4-0.1-0.9-0.3-1.3-0.4c-1.7-0.4-3.5-0.7-5.4-0.8
	C9.4,0.9,5.7,1,2,1.7C1,1.9,0.5,2.1,0.4,2.2c0,0.1,0,0.2,0,0.3c0.3,1.2,1,4.4,2.2,5.5l0.3,0.2C3,8.3,3.1,8.3,3.2,8.3
	C4,8.3,7.7,7.7,7.8,7.7c1.1-0.2,9.7-0.6,12.4,0c0.1,0,0.1,0,0.2,0.1l-0.6,0.1c-0.6,0.3-7.9,2.1-9.5,2.5c0,0,0,0,0,0
	c-0.1,0-0.1,0-0.1,0c0,0,0,0,0,0c0,0,0,0,0,0c0,0,0,0,0,0c0,0,0,0,0,0c0,0,0,0,0,0c0,0,0,0,0,0c0,0,0,0,0,0c0,0,0,0,0,0c0,0,0,0,0,0
	c0,0,0,0,0,0c0,0,0,0,0,0c0,0-0.1,0-0.1,0c-8.2,2.7-3.9,5.7-2.6,6.6c0.1,0.1,8.1,5.4,10.2,6.2l0.4,0.1c0,0,0,0,0,0
	c0.6,0.2,2.6,0.4,2.9-0.6c0.1-0.2-0.1-0.3-0.3-0.5c-0.3-0.2-0.5-0.3-0.7-0.5c-0.2-0.2-0.5-0.3-0.7-0.5c-2.6-1.9-5.5-4.3-8.5-7.2
	c0,0,0,0,0,0c0,0,0,0,0,0c0,0,0,0,0,0c0,0,0,0,0,0c0,0,0,0,0,0c0.8-0.1,11-1.5,13.7-2.7c0.3-0.1,0.5-0.3,0.6-0.4
	c0-0.1,0-0.1,0.1-0.1c0-0.1,0.1-0.1,0.1-0.2C25.3,10.4,25.2,10,25,9.5z"/>
<g>
	<g>
		<path d="M55.5,13.2c1.1-0.5,2-1.3,2.6-2.3c0.6-1,0.9-2.1,0.9-3.5c0-1.3-0.3-2.4-0.9-3.4c-0.6-1-1.5-1.8-2.6-2.3
			c-1.1-0.6-2.4-0.9-3.9-0.9h-4.5H46h-3.2v22.7h4.4v-9.5h0.8l7.3,9.5h5.3L52.9,14C53.9,13.9,54.7,13.6,55.5,13.2z M47.1,4.4h4.1
			c1.1,0,1.9,0.3,2.5,0.9c0.6,0.6,0.9,1.3,0.9,2.2c0,1-0.3,1.7-0.9,2.3c-0.6,0.5-1.4,0.8-2.5,0.8h-4.1V4.4z"/>
		<path d="M73.3,8.6c-1.2-0.7-2.5-1-4-1c-1.5,0-2.9,0.4-4.2,1.1c-1.3,0.7-2.2,1.7-3,2.9c-0.7,1.2-1.1,2.6-1.1,4.1
			c0,1.6,0.4,3,1.1,4.2c0.7,1.2,1.8,2.2,3,2.9c1.3,0.7,2.7,1,4.4,1c1.3,0,2.5-0.2,3.5-0.7c1.1-0.5,2-1.1,2.8-2l-2.5-2.5
			c-0.5,0.5-1,0.9-1.7,1.2c-0.6,0.3-1.4,0.4-2.2,0.4c-0.9,0-1.7-0.2-2.3-0.6c-0.7-0.4-1.2-0.9-1.5-1.6c-0.1-0.3-0.2-0.6-0.3-0.9
			l11.4,0c0.1-0.4,0.1-0.7,0.2-1c0-0.3,0-0.6,0-0.9c0-1.5-0.3-2.8-1-4C75.4,10.2,74.5,9.3,73.3,8.6z M67.1,11.7
			c0.6-0.4,1.4-0.6,2.2-0.6c0.8,0,1.5,0.2,2,0.5c0.6,0.3,1,0.8,1.3,1.4c0.1,0.3,0.2,0.6,0.3,1l-7.6,0c0.1-0.3,0.2-0.6,0.3-0.8
			C66,12.6,66.5,12.1,67.1,11.7z"/>
		<path d="M83.8,11.5c0.3-0.2,0.8-0.3,1.4-0.3c0.7,0,1.3,0.1,1.9,0.4c0.6,0.3,1.1,0.7,1.6,1.3l2.6-2.6c-0.7-0.9-1.6-1.6-2.6-2
			c-1-0.5-2.2-0.7-3.5-0.7c-1.2,0-2.3,0.2-3.2,0.6c-0.9,0.4-1.6,1-2.1,1.7c-0.5,0.7-0.7,1.6-0.7,2.6c0,0.9,0.2,1.7,0.6,2.3
			c0.4,0.6,0.9,1.1,1.5,1.4c0.6,0.3,1.2,0.6,1.9,0.8c0.7,0.2,1.3,0.4,1.9,0.5c0.6,0.2,1.1,0.4,1.5,0.6c0.4,0.2,0.6,0.6,0.6,1
			c0,0.4-0.2,0.7-0.5,0.9c-0.4,0.2-0.9,0.3-1.6,0.3c-0.9,0-1.6-0.2-2.4-0.5c-0.7-0.3-1.3-0.8-1.9-1.4L78.2,21
			c0.5,0.6,1.1,1.1,1.8,1.5c0.7,0.4,1.5,0.7,2.3,1s1.7,0.4,2.6,0.4c1.9,0,3.4-0.4,4.5-1.3c1.1-0.9,1.7-2.1,1.7-3.6
			c0-0.9-0.2-1.7-0.6-2.3c-0.4-0.6-0.9-1.1-1.5-1.5c-0.6-0.4-1.2-0.7-1.9-0.9c-0.7-0.2-1.3-0.4-1.9-0.5c-0.6-0.2-1.1-0.3-1.5-0.6
			c-0.4-0.2-0.6-0.5-0.6-0.9C83.3,12,83.5,11.7,83.8,11.5z"/>
		<path d="M103.5,16.9c0,1-0.2,1.7-0.7,2.3c-0.5,0.5-1.2,0.8-2.1,0.8c-0.6,0-1.1-0.1-1.5-0.4c-0.4-0.2-0.8-0.6-1-1
			c-0.2-0.5-0.3-1-0.3-1.7V8h-4.3v9c0,1.4,0.3,2.6,0.9,3.6c0.6,1,1.4,1.8,2.5,2.4c1.1,0.6,2.3,0.9,3.7,0.9c1.4,0,2.6-0.3,3.7-0.9
			c1.1-0.6,1.9-1.4,2.5-2.4c0.6-1,0.9-2.2,0.9-3.6V8h-4.2V16.9z"/>
		<rect x="111.1" y="0.2" width="4.2" height="23.3"/>
		<path d="M128.1,20c-0.7,0-1.3-0.1-1.7-0.3c-0.4-0.2-0.8-0.5-1-0.9c-0.2-0.4-0.3-0.9-0.3-1.5V9.8h4V6h-4V2h-4.2v1.4
			c0,0.9-0.2,1.5-0.7,2c-0.5,0.5-1.1,0.7-2,0.7h-0.3v3.8h3v7.8c0,2,0.5,3.5,1.6,4.6c1.1,1.1,2.6,1.6,4.6,1.6c0.3,0,0.7,0,1.1-0.1
			c0.4,0,0.7-0.1,1-0.1v-3.6c-0.2,0-0.4,0-0.6,0.1C128.5,20,128.3,20,128.1,20z"/>
		<path d="M142.7,8c-0.6-0.2-1.3-0.4-2-0.4c-1.7,0-3.1,0.6-4,1.7c0,0,0,0,0,0V8h-4.2v15.6h4.2v-8.6c0-1.2,0.3-2,0.9-2.6
			c0.6-0.6,1.3-0.9,2.2-0.9c0.4,0,0.8,0.1,1.1,0.2c0.3,0.1,0.6,0.3,0.9,0.6l2.7-3C143.9,8.7,143.3,8.3,142.7,8z"/>
		<path d="M159.3,11.4c-0.7-1.2-1.6-2.1-2.7-2.8c-1.2-0.7-2.5-1-4-1c-1.5,0-2.9,0.4-4.2,1.1c-1.3,0.7-2.2,1.7-3,2.9
			c-0.7,1.2-1.1,2.6-1.1,4.1c0,1.6,0.4,3,1.1,4.2c0.7,1.2,1.8,2.2,3,2.9c1.3,0.7,2.7,1,4.4,1c1.3,0,2.5-0.2,3.5-0.7
			c1.1-0.5,2-1.1,2.8-2l-2.5-2.5c-0.5,0.5-1,0.9-1.7,1.2c-0.6,0.3-1.4,0.4-2.2,0.4c-0.9,0-1.7-0.2-2.3-0.6c-0.7-0.4-1.2-0.9-1.5-1.6
			c-0.1-0.3-0.2-0.6-0.3-0.9l11.4,0c0.1-0.4,0.1-0.7,0.2-1c0-0.3,0-0.6,0-0.9C160.3,13.9,160,12.6,159.3,11.4z M150.4,11.7
			c0.6-0.4,1.4-0.6,2.2-0.6c0.8,0,1.5,0.2,2,0.5c0.5,0.3,1,0.8,1.3,1.4c0.1,0.3,0.2,0.6,0.3,1l-7.6,0c0.1-0.3,0.2-0.6,0.3-0.8
			C149.3,12.6,149.8,12.1,150.4,11.7z"/>
	</g>
</g>
</svg>
